# xmcd CD database file
#
# Track frame offsets:
# 150
# 3922
# 12570
# 24492
# 36770
# 51289
# 63587
# 80679
# 90707
# 106815
# 120182
#
# Disc length: 1772 seconds
# Revision: 4
# Processed by: cddbd v1.5.2PL0 Copyright (c) Steve Scherf et al.
# Submitted via: MusicBin 0.4
#
DISCID=8006ea0b
DTITLE=Brian Wilson - I Just Wasn't Made For These Times
DYEAR=1995
DGENRE=Rock
TTITLE0=Meant For You
TTITLE1=This Whole World
TTITLE2=Caroline, No
TTITLE3=Let The Wind Blow
TTITLE4=Love And Mercy
TTITLE5=Do It Again (Featuring Carnie And Wendy Wilson)
TTITLE6=The Warmth Of The Sun
TTITLE7=Wonderful
TTITLE8=Still I Dream Of It
TTITLE9=Melt Away
TTITLE10='Til I Die
EXTD=
EXTT0=
EXTT1=
EXTT2=
EXTT3=
EXTT4=
EXTT5=
EXTT6=
EXTT7=
EXTT8=
EXTT9=
EXTT10=
PLAYORDER=
